<svg width="213" height="22" viewBox="0 0 213 22" fill="none" xmlns="http://www.w3.org/2000/svg">
<path d="M19.3213 17.1914H8.10059L6.21094 21H0.146484L10.6787 0.873047H16.7432L27.2754 21H21.2109L19.3213 17.1914ZM10.0488 13.2656H17.4023L13.7402 5.85352L10.0488 13.2656ZM53.1885 7.74316C53.1885 8.74902 53.042 9.67676 52.749 10.5264C52.4561 11.3662 51.9824 12.0938 51.3281 12.709C50.6836 13.3145 49.8438 13.7881 48.8086 14.1299C47.7734 14.4717 46.5137 14.6426 45.0293 14.6426H36.0059V21H30.5713V0.873047H45.0293C46.5137 0.873047 47.7734 1.04395 48.8086 1.38574C49.8438 1.71777 50.6836 2.19141 51.3281 2.80664C51.9824 3.41211 52.4561 4.13477 52.749 4.97461C53.042 5.81445 53.1885 6.7373 53.1885 7.74316ZM47.6953 7.83105C47.6953 7.3623 47.627 6.96191 47.4902 6.62988C47.3633 6.28809 47.1484 6.00977 46.8457 5.79492C46.543 5.58008 46.1475 5.42383 45.6592 5.32617C45.1709 5.21875 44.5703 5.16504 43.8574 5.16504H36.0059V10.3506H43.8574C44.5703 10.3506 45.1709 10.3115 45.6592 10.2334C46.1475 10.1455 46.543 10.0039 46.8457 9.80859C47.1484 9.60352 47.3633 9.33984 47.4902 9.01758C47.627 8.69531 47.6953 8.2998 47.6953 7.83105ZM83.7451 10.9512C83.7451 12.6797 83.4277 14.208 82.793 15.5361C82.1582 16.8545 81.25 17.958 80.0684 18.8467C78.8867 19.7354 77.4512 20.4092 75.7617 20.8682C74.082 21.3174 72.1924 21.542 70.0928 21.542C67.9932 21.542 66.0938 21.3174 64.3945 20.8682C62.7051 20.4092 61.2646 19.7354 60.0732 18.8467C58.8818 17.958 57.9639 16.8545 57.3193 15.5361C56.6748 14.208 56.3525 12.6797 56.3525 10.9512C56.3525 9.22266 56.6748 7.69922 57.3193 6.38086C57.9639 5.05273 58.8818 3.94434 60.0732 3.05566C61.2646 2.16699 62.7051 1.49805 64.3945 1.04883C66.0938 0.589844 67.9932 0.360352 70.0928 0.360352C72.1924 0.360352 74.082 0.589844 75.7617 1.04883C77.4512 1.49805 78.8867 2.16699 80.0684 3.05566C81.25 3.94434 82.1582 5.05273 82.793 6.38086C83.4277 7.69922 83.7451 9.22266 83.7451 10.9512ZM78.252 10.9512C78.252 10.1992 78.1299 9.45215 77.8857 8.70996C77.6514 7.95801 77.2266 7.28418 76.6113 6.68848C76.0059 6.09277 75.1758 5.60937 74.1211 5.23828C73.0664 4.86719 71.7236 4.68164 70.0928 4.68164C68.999 4.68164 68.0371 4.76953 67.207 4.94531C66.377 5.11133 65.6592 5.3457 65.0537 5.64844C64.4482 5.95117 63.9404 6.30762 63.5303 6.71777C63.1201 7.11816 62.793 7.55273 62.5488 8.02148C62.3047 8.48047 62.1289 8.96387 62.0215 9.47168C61.9238 9.96973 61.875 10.4629 61.875 10.9512C61.875 11.4492 61.9238 11.9521 62.0215 12.46C62.1289 12.9678 62.3047 13.4561 62.5488 13.9248C62.793 14.3838 63.1201 14.8135 63.5303 15.2139C63.9404 15.6143 64.4482 15.9658 65.0537 16.2686C65.6592 16.5615 66.377 16.7959 67.207 16.9717C68.0371 17.1377 68.999 17.2207 70.0928 17.2207C71.7236 17.2207 73.0664 17.0352 74.1211 16.6641C75.1758 16.293 76.0059 15.8096 76.6113 15.2139C77.2266 14.6182 77.6514 13.9492 77.8857 13.207C78.1299 12.4551 78.252 11.7031 78.252 10.9512ZM88.6963 21V0.873047H94.1309V16.5908H108.823V21H88.6963ZM113.188 21V0.873047H118.623V16.5908H133.315V21H113.188ZM163.726 10.9512C163.726 12.6797 163.408 14.208 162.773 15.5361C162.139 16.8545 161.23 17.958 160.049 18.8467C158.867 19.7354 157.432 20.4092 155.742 20.8682C154.062 21.3174 152.173 21.542 150.073 21.542C147.974 21.542 146.074 21.3174 144.375 20.8682C142.686 20.4092 141.245 19.7354 140.054 18.8467C138.862 17.958 137.944 16.8545 137.3 15.5361C136.655 14.208 136.333 12.6797 136.333 10.9512C136.333 9.22266 136.655 7.69922 137.3 6.38086C137.944 5.05273 138.862 3.94434 140.054 3.05566C141.245 2.16699 142.686 1.49805 144.375 1.04883C146.074 0.589844 147.974 0.360352 150.073 0.360352C152.173 0.360352 154.062 0.589844 155.742 1.04883C157.432 1.49805 158.867 2.16699 160.049 3.05566C161.23 3.94434 162.139 5.05273 162.773 6.38086C163.408 7.69922 163.726 9.22266 163.726 10.9512ZM158.232 10.9512C158.232 10.1992 158.11 9.45215 157.866 8.70996C157.632 7.95801 157.207 7.28418 156.592 6.68848C155.986 6.09277 155.156 5.60937 154.102 5.23828C153.047 4.86719 151.704 4.68164 150.073 4.68164C148.979 4.68164 148.018 4.76953 147.188 4.94531C146.357 5.11133 145.64 5.3457 145.034 5.64844C144.429 5.95117 143.921 6.30762 143.511 6.71777C143.101 7.11816 142.773 7.55273 142.529 8.02148C142.285 8.48047 142.109 8.96387 142.002 9.47168C141.904 9.96973 141.855 10.4629 141.855 10.9512C141.855 11.4492 141.904 11.9521 142.002 12.46C142.109 12.9678 142.285 13.4561 142.529 13.9248C142.773 14.3838 143.101 14.8135 143.511 15.2139C143.921 15.6143 144.429 15.9658 145.034 16.2686C145.64 16.5615 146.357 16.7959 147.188 16.9717C148.018 17.1377 148.979 17.2207 150.073 17.2207C151.704 17.2207 153.047 17.0352 154.102 16.6641C155.156 16.293 155.986 15.8096 156.592 15.2139C157.207 14.6182 157.632 13.9492 157.866 13.207C158.11 12.4551 158.232 11.7031 158.232 10.9512Z" fill="black"/>
<path d="M184.482 17.0449V21H179.092V17.0449H166.274V12.7529L177.803 0.873047H184.482V12.7529H189.053V17.0449H184.482ZM179.092 5.60449L172.163 12.7529H179.092V5.60449ZM191.162 21V17.3965C193.779 16.1953 196.05 15.1211 197.974 14.1738C199.907 13.2266 201.504 12.3672 202.764 11.5957C204.033 10.8242 204.976 10.1211 205.591 9.48633C206.206 8.8418 206.514 8.22168 206.514 7.62598C206.514 7.45996 206.494 7.27441 206.455 7.06934C206.426 6.85449 206.348 6.63965 206.221 6.4248C206.104 6.2002 205.928 5.98047 205.693 5.76562C205.459 5.55078 205.137 5.36523 204.727 5.20898C204.316 5.04297 203.809 4.91113 203.203 4.81348C202.598 4.70605 201.865 4.65234 201.006 4.65234C200.215 4.65234 199.39 4.70605 198.53 4.81348C197.671 4.91113 196.821 5.05273 195.981 5.23828C195.142 5.42383 194.331 5.64844 193.55 5.91211C192.769 6.17578 192.051 6.47363 191.396 6.80566V2.01562C192.744 1.54688 194.238 1.15625 195.879 0.84375C197.529 0.521484 199.268 0.360352 201.094 0.360352C202.803 0.360352 204.331 0.511719 205.679 0.814453C207.026 1.11719 208.164 1.55664 209.092 2.13281C210.029 2.69922 210.742 3.39258 211.23 4.21289C211.729 5.02344 211.978 5.94141 211.978 6.9668C211.978 7.5332 211.914 8.06543 211.787 8.56348C211.67 9.05176 211.455 9.53027 211.143 9.99902C210.83 10.4678 210.405 10.9414 209.868 11.4199C209.341 11.8887 208.667 12.3867 207.847 12.9141C207.036 13.4414 206.064 14.0127 204.932 14.6279C203.799 15.2334 202.48 15.9072 200.977 16.6494H212.402V21H191.162Z" fill="url(#paint0_linear_3_66)"/>
<defs>
<linearGradient id="paint0_linear_3_66" x1="-17.7375" y1="-4.56225" x2="-11.5614" y2="60.2026" gradientUnits="userSpaceOnUse">
<stop stop-color="#F368E0"/>
<stop offset="0.494792" stop-color="#5F27CD"/>
<stop offset="1" stop-color="#48DBFB"/>
</linearGradient>
</defs>
</svg>
