<svg width="16" height="16" viewBox="0 0 16 16" fill="none" xmlns="http://www.w3.org/2000/svg">
<path d="M7.99999 10C9.10456 10 9.99999 9.10457 9.99999 8C9.99999 6.89543 9.10456 6 7.99999 6C6.89542 6 5.99999 6.89543 5.99999 8C5.99999 9.10457 6.89542 10 7.99999 10Z" fill="url(#paint0_linear_3_21)"/>
<path d="M15.3383 7.45625C14.5115 6.1775 13.4386 5.09125 12.2361 4.31469C10.9058 3.45469 9.43709 3 7.98896 3C6.66021 3 5.35365 3.37969 4.10552 4.12844C2.83271 4.89188 1.67959 6.00719 0.678023 7.44312C0.564956 7.60541 0.502685 7.79764 0.499124 7.9954C0.495563 8.19315 0.550872 8.3875 0.658023 8.55375C1.48334 9.84531 2.54552 10.9331 3.72927 11.6991C5.06209 12.5625 6.49646 13 7.98896 13C9.44865 13 10.9205 12.5491 12.2452 11.6962C13.4471 10.9222 14.5177 9.83187 15.3415 8.5425C15.4449 8.38012 15.4996 8.19146 15.4991 7.99892C15.4985 7.80638 15.4427 7.61804 15.3383 7.45625ZM7.99959 11C7.40624 11 6.82622 10.8241 6.33287 10.4944C5.83953 10.1648 5.45501 9.69623 5.22795 9.14805C5.00088 8.59987 4.94147 7.99667 5.05723 7.41473C5.17299 6.83279 5.45871 6.29824 5.87827 5.87868C6.29782 5.45912 6.83237 5.1734 7.41431 5.05764C7.99626 4.94189 8.59946 5.0013 9.14764 5.22836C9.69582 5.45542 10.1644 5.83994 10.494 6.33329C10.8236 6.82664 10.9996 7.40666 10.9996 8C10.9987 8.79537 10.6823 9.5579 10.1199 10.1203C9.55749 10.6827 8.79496 10.9991 7.99959 11Z" fill="url(#paint1_linear_3_21)"/>
<defs>
<linearGradient id="paint0_linear_3_21" x1="-0.738546" y1="2.49605" x2="7.0439" y2="20.1465" gradientUnits="userSpaceOnUse">
<stop stop-color="#F368E0"/>
<stop offset="0.494792" stop-color="#5F27CD"/>
<stop offset="1" stop-color="#48DBFB"/>
</linearGradient>
<linearGradient id="paint1_linear_3_21" x1="-0.738546" y1="2.49605" x2="7.0439" y2="20.1465" gradientUnits="userSpaceOnUse">
<stop stop-color="#F368E0"/>
<stop offset="0.494792" stop-color="#5F27CD"/>
<stop offset="1" stop-color="#48DBFB"/>
</linearGradient>
</defs>
</svg>
