<svg width="16" height="16" viewBox="0 0 16 16" fill="none" xmlns="http://www.w3.org/2000/svg">
<path d="M6.66665 12C7.84996 11.9998 8.99918 11.6036 9.93131 10.8747L12.862 13.8053L13.8046 12.8627L10.874 9.93201C11.6033 8.99979 11.9997 7.8503 12 6.66668C12 3.72601 9.60731 1.33334 6.66665 1.33334C3.72598 1.33334 1.33331 3.72601 1.33331 6.66668C1.33331 9.60734 3.72598 12 6.66665 12ZM6.66665 2.66668C8.87265 2.66668 10.6666 4.46068 10.6666 6.66668C10.6666 8.87268 8.87265 10.6667 6.66665 10.6667C4.46065 10.6667 2.66665 8.87268 2.66665 6.66668C2.66665 4.46068 4.46065 2.66668 6.66665 2.66668Z" fill="black"/>
</svg>
